<svg width="32" height="32" viewBox="0 0 32 32" fill="none" xmlns="http://www.w3.org/2000/svg">
<path d="M28 10H22V24H24V20H28C28.5302 19.9992 29.0384 19.7882 29.4133 19.4133C29.7882 19.0384 29.9992 18.5302 30 18V12C29.9995 11.4697 29.7886 10.9613 29.4136 10.5864C29.0387 10.2114 28.5303 10.0005 28 10V10ZM24 18V12H28V18H24ZM18 10H12V24H14V20H18C18.5302 19.9992 19.0384 19.7882 19.4133 19.4133C19.7882 19.0384 19.9992 18.5302 20 18V12C19.9995 11.4697 19.7886 10.9613 19.4136 10.5864C19.0387 10.2114 18.5303 10.0005 18 10V10ZM14 18V12H18V18H14ZM8 10H3V12H8V14H4C3.46957 14 2.96086 14.2107 2.58579 14.5858C2.21071 14.9609 2 15.4696 2 16V18C2 18.5304 2.21071 19.0391 2.58579 19.4142C2.96086 19.7893 3.46957 20 4 20H10V12C9.99947 11.4697 9.78859 10.9613 9.41363 10.5864C9.03867 10.2114 8.53027 10.0005 8 10V10ZM8 18H4V16H8V18Z" fill="black"/>
</svg>
